<svg xml:space="preserve" style="max-height: 500px" viewBox="0 0 94.35 110.0377358490566" y="0px" x="0px" id="Layer_1" version="1.1" xmlns:xlink="http://www.w3.org/1999/xlink" xmlns="http://www.w3.org/2000/svg" width="94.35" height="110.0377358490566"><path d="M62.7,63.5L35.5,36.3l0,43.5l27.2,27.2l27.2-27.2V36.3L62.7,63.5z" style="fill-rule:evenodd;clip-rule:evenodd;fill:#78C864"/><path d="M30.7,36.3H2.3v43.5h28.5V36.3z" style="fill:#78C864"/><path d="M16.4,33.6c9,0,16.3-7.3,16.3-16.3c0-9-7.3-16.3-16.3-16.3c-9,0-16.3,7.3-16.3,16.3  C0.1,26.3,7.4,33.6,16.4,33.6z" style="fill:#78C864"/><path d="M124,43.7v2.7h-6.9v5.3h7.7v2.7h-11V36.3h10.6V39h-7.3v4.7H124z M127.6,54.5v-9.2c0-1.5-0.1-2.8-0.1-3.9h2.9  l0.2,2h0.1c0.6-1,2-2.3,4.2-2.3c2.3,0,4.7,1.5,4.7,5.6v7.8h-3.3v-7.4c0-1.9-0.7-3.3-2.5-3.3c-1.3,0-2.2,0.9-2.6,1.9  c-0.1,0.3-0.2,0.7-0.2,1.1v7.7H127.6z M155,45.1v7.5c0,2.8-0.6,4.7-1.9,6c-1.3,1.2-3.3,1.6-5.1,1.6c-1.7,0-3.5-0.4-4.6-1.1l0.7-2.5  c0.8,0.5,2.2,1,3.8,1c2.2,0,3.8-1.1,3.8-4v-1.1h-0.1c-0.8,1.2-2.1,1.9-3.8,1.9c-3.3,0-5.6-2.7-5.6-6.4c0-4.3,2.8-6.9,6-6.9  c2,0,3.2,1,3.8,2.1h0.1l0.1-1.8h2.9C155,42.3,155,43.3,155,45.1z M151.6,48.8v-2.1c0-0.3,0-0.6-0.1-0.9c-0.4-1.2-1.3-2.1-2.7-2.1  c-1.9,0-3.2,1.6-3.2,4.3c0,2.2,1.1,4,3.2,4c1.2,0,2.3-0.8,2.7-2C151.6,49.6,151.6,49.1,151.6,48.8z M161.7,54.5h-3.3V41.4h3.3V54.5z   M160.1,39.5L160.1,39.5c-1.1,0-1.9-0.8-1.9-1.8c0-1,0.8-1.8,1.9-1.8c1.1,0,1.8,0.8,1.9,1.8C162,38.7,161.2,39.5,160.1,39.5z   M165.3,54.5v-9.2c0-1.5-0.1-2.8-0.1-3.9h2.9l0.2,2h0.1c0.6-1,2-2.3,4.2-2.3c2.3,0,4.7,1.5,4.7,5.6v7.8h-3.3v-7.4  c0-1.9-0.7-3.3-2.5-3.3c-1.3,0-2.2,0.9-2.6,1.9c-0.1,0.3-0.2,0.7-0.2,1.1v7.7H165.3z M191.9,48.9h-8.8c0.1,2.4,1.9,3.4,4.1,3.4  c1.5,0,2.6-0.2,3.6-0.6l0.5,2.3c-1.1,0.5-2.7,0.8-4.6,0.8c-4.3,0-6.8-2.6-6.8-6.6c0-3.6,2.2-7.1,6.4-7.1c4.3,0,5.7,3.5,5.7,6.4  C192,48.1,192,48.6,191.9,48.9z M183.1,46.6h5.8c0-1.2-0.5-3.2-2.7-3.2C184.1,43.3,183.3,45.2,183.1,46.6z M205.8,48.9H197  c0.1,2.4,1.9,3.4,4.1,3.4c1.5,0,2.6-0.2,3.6-0.6l0.5,2.3c-1.1,0.5-2.7,0.8-4.6,0.8c-4.3,0-6.8-2.6-6.8-6.6c0-3.6,2.2-7.1,6.4-7.1  c4.3,0,5.7,3.5,5.7,6.4C206,48.1,205.9,48.6,205.8,48.9z M197,46.6h5.8c0-1.2-0.5-3.2-2.7-3.2C198,43.3,197.2,45.2,197,46.6z   M208.6,54.5v-8.9c0-1.8,0-3.1-0.1-4.2h2.9l0.1,2.5h0.1c0.6-1.8,2.2-2.8,3.6-2.8c0.3,0,0.5,0,0.8,0.1v3.1c-0.3-0.1-0.6-0.1-1-0.1  c-1.6,0-2.7,1-3,2.5c-0.1,0.3-0.1,0.6-0.1,1v6.8H208.6z M221.6,54.5h-3.3V41.4h3.3V54.5z M219.9,39.5L219.9,39.5  c-1.1,0-1.9-0.8-1.9-1.8c0-1,0.8-1.8,1.9-1.8c1.1,0,1.8,0.8,1.9,1.8C221.8,38.7,221.1,39.5,219.9,39.5z M225.2,54.5v-9.2  c0-1.5-0.1-2.8-0.1-3.9h2.9l0.2,2h0.1c0.6-1,2-2.3,4.2-2.3c2.3,0,4.7,1.5,4.7,5.6v7.8h-3.3v-7.4c0-1.9-0.7-3.3-2.5-3.3  c-1.3,0-2.2,0.9-2.6,1.9c-0.1,0.3-0.2,0.7-0.2,1.1v7.7H225.2z M252.5,45.1v7.5c0,2.8-0.6,4.7-1.9,6c-1.3,1.2-3.3,1.6-5.1,1.6  c-1.7,0-3.5-0.4-4.6-1.1l0.7-2.5c0.8,0.5,2.2,1,3.8,1c2.2,0,3.8-1.1,3.8-4v-1.1h-0.1c-0.8,1.2-2.1,1.9-3.8,1.9  c-3.3,0-5.6-2.7-5.6-6.4c0-4.3,2.8-6.9,6-6.9c2,0,3.2,1,3.8,2.1h0.1l0.1-1.8h2.9C252.6,42.3,252.5,43.3,252.5,45.1z M249.2,48.8  v-2.1c0-0.3,0-0.6-0.1-0.9c-0.4-1.2-1.3-2.1-2.7-2.1c-1.9,0-3.2,1.6-3.2,4.3c0,2.2,1.1,4,3.2,4c1.2,0,2.3-0.8,2.7-2  C249.2,49.6,249.2,49.1,249.2,48.8z" style="fill:#FFFFFF"/><path d="M114.2,64.3l3.3-0.9v3.4h3.2v2.5h-3.2V75c0,1.6,0.4,2.4,1.7,2.4c0.6,0,0.9,0,1.3-0.1l0.1,2.5  c-0.5,0.2-1.4,0.4-2.4,0.4c-1.2,0-2.2-0.4-2.9-1.1c-0.7-0.8-1.1-2-1.1-3.7v-6.2h-1.9v-2.5h1.9V64.3z M123.2,79.9V60.7h3.3v7.8h0.1  c0.4-0.6,1-1.1,1.6-1.5c0.7-0.4,1.5-0.6,2.3-0.6c2.2,0,4.6,1.5,4.6,5.7v7.7h-3.3v-7.4c0-1.9-0.7-3.3-2.5-3.3c-1.3,0-2.2,0.9-2.6,1.9  c-0.1,0.3-0.1,0.6-0.1,1v7.9H123.2z M148.8,72v4.7c0,1.2,0.1,2.3,0.2,3.2h-3l-0.2-1.5h-0.1c-0.8,1-2.2,1.8-3.9,1.8  c-2.6,0-4.1-1.9-4.1-3.9c0-3.3,2.9-5,7.8-5v-0.2c0-0.9-0.4-2.3-2.7-2.3c-1.3,0-2.6,0.4-3.5,1l-0.6-2.2c1-0.6,2.7-1.2,4.8-1.2  C147.6,66.4,148.8,69.1,148.8,72z M145.6,75.2v-1.8c-2.3,0-4.6,0.5-4.6,2.5c0,1.3,0.8,1.9,1.9,1.9c1.4,0,2.3-0.9,2.6-1.8  C145.6,75.7,145.6,75.5,145.6,75.2z M152.7,64.3l3.3-0.9v3.4h3.2v2.5H156V75c0,1.6,0.4,2.4,1.7,2.4c0.6,0,0.9,0,1.3-0.1l0.1,2.5  c-0.5,0.2-1.4,0.4-2.4,0.4c-1.2,0-2.2-0.4-2.9-1.1c-0.7-0.8-1.1-2-1.1-3.7v-6.2h-1.9v-2.5h1.9V64.3z M178.4,74.2h-8.8  c0.1,2.4,1.9,3.4,4,3.4c1.5,0,2.6-0.2,3.6-0.6l0.5,2.3c-1.1,0.5-2.7,0.8-4.6,0.8c-4.3,0-6.8-2.6-6.8-6.6c0-3.6,2.2-7.1,6.4-7.1  c4.3,0,5.7,3.5,5.7,6.4C178.5,73.4,178.4,73.9,178.4,74.2z M169.6,71.9h5.8c0-1.2-0.5-3.2-2.7-3.2C170.6,68.7,169.7,70.5,169.6,71.9  z M179.4,66.7h3.7l1.6,2.5c0.4,0.7,0.8,1.4,1.2,2h0.1c0.4-0.7,0.8-1.4,1.2-2.1l1.5-2.4h3.6l-4.4,6.3l4.5,6.9h-3.8l-1.6-2.6  c-0.4-0.7-0.8-1.4-1.2-2.1h-0.1c-0.4,0.8-0.8,1.4-1.2,2.2l-1.5,2.6h-3.6l4.6-6.7L179.4,66.7z M203,77l0.5,2.5  c-0.7,0.3-2.1,0.7-3.7,0.7c-4.1,0-6.8-2.6-6.8-6.7c0-3.9,2.7-7,7.3-7c1.2,0,2.5,0.3,3.2,0.6l-0.6,2.5c-0.5-0.3-1.3-0.5-2.5-0.5  c-2.5,0-4.1,1.9-4,4.3c0,2.7,1.8,4.2,4,4.2C201.5,77.5,202.3,77.3,203,77z M209.2,79.9h-3.3V66.7h3.3V79.9z M207.6,64.8L207.6,64.8  c-1.1,0-1.9-0.8-1.9-1.8c0-1,0.8-1.8,1.9-1.8c1.1,0,1.8,0.8,1.9,1.8C209.4,64,208.7,64.8,207.6,64.8z M213.4,64.3l3.3-0.9v3.4h3.2  v2.5h-3.2V75c0,1.6,0.4,2.4,1.7,2.4c0.6,0,0.9,0,1.3-0.1l0.1,2.5c-0.5,0.2-1.4,0.4-2.4,0.4c-1.2,0-2.2-0.4-2.9-1.1  c-0.7-0.8-1.1-2-1.1-3.7v-6.2h-1.9v-2.5h1.9V64.3z M233.3,74.2h-8.8c0.1,2.4,1.9,3.4,4.1,3.4c1.5,0,2.6-0.2,3.6-0.6l0.5,2.3  c-1.1,0.5-2.7,0.8-4.6,0.8c-4.3,0-6.8-2.6-6.8-6.6c0-3.6,2.2-7.1,6.4-7.1c4.3,0,5.7,3.5,5.7,6.4C233.4,73.4,233.3,73.9,233.3,74.2z   M224.5,71.9h5.8c0-1.2-0.5-3.2-2.7-3.2C225.5,68.7,224.6,70.5,224.5,71.9z M235.2,79.2l0.7-2.4c0.7,0.5,2.2,1,3.3,1  c1.5,0,2.1-0.6,2.1-1.5c0-0.9-0.5-1.3-2.2-1.9c-2.6-0.9-3.6-2.3-3.6-3.8c0-2.3,1.9-4.1,5-4.1c1.5,0,2.7,0.4,3.5,0.8l-0.7,2.3  c-0.5-0.3-1.6-0.8-2.8-0.8c-1.2,0-1.8,0.6-1.8,1.4c0,0.8,0.6,1.2,2.3,1.8c2.4,0.8,3.5,2.1,3.5,4c0,2.4-1.9,4.1-5.3,4.1  C237.6,80.1,236.2,79.8,235.2,79.2z" style="fill:#FFFFFF"/></svg>